<?xml version="1.0" standalone="no"?>
<!DOCTYPE svg PUBLIC "-//W3C//DTD SVG 20010904//EN"
 "http://www.w3.org/TR/2001/REC-SVG-20010904/DTD/svg10.dtd">
<svg version="1.0" xmlns="http://www.w3.org/2000/svg"
 width="270.000000pt" height="270.000000pt" viewBox="0 0 270.000000 270.000000"
 preserveAspectRatio="xMidYMid meet">
<metadata>
Created by potrace 1.14, written by Peter Selinger 2001-2017
</metadata>
<g transform="translate(0.000000,270.000000) scale(0.100000,-0.100000)"
fill="#000000" stroke="none">
<path d="M1237 2614 c-1 -1 -22 -5 -47 -9 -25 -3 -61 -9 -80 -12 -19 -3 -78
-19 -130 -35 -52 -16 -105 -32 -117 -35 -13 -3 -23 -9 -23 -14 0 -5 -8 -9 -18
-9 -16 0 -190 -94 -202 -109 -3 -3 -27 -21 -55 -40 -61 -42 -219 -201 -260
-262 -16 -24 -33 -46 -36 -49 -11 -10 -79 -131 -105 -188 -35 -77 -86 -231
-88 -264 0 -16 -3 -28 -6 -28 -7 0 -7 -6 -15 -142 -3 -60 -2 -108 2 -108 17 0
28 16 29 40 0 35 13 160 19 190 3 14 7 34 9 46 2 12 15 54 27 95 13 41 23 76
24 79 1 3 12 28 25 55 13 28 24 52 24 55 4 17 78 136 123 196 49 66 149 172
204 219 54 44 202 137 256 161 32 14 73 33 92 42 19 9 37 17 40 18 3 0 26 6
51 13 25 7 52 15 60 16 8 2 16 4 18 5 4 4 39 10 152 27 14 2 77 4 140 4 106 1
157 -3 220 -17 14 -3 34 -7 45 -8 45 -8 99 -22 150 -42 11 -4 23 -8 28 -9 4
-2 9 -4 12 -5 3 -1 8 -3 13 -4 26 -4 213 -108 269 -150 112 -82 323 -306 323
-342 0 -4 6 -15 14 -23 30 -34 106 -200 130 -285 30 -101 35 -126 41 -181 3
-22 7 -51 10 -65 7 -33 7 -200 1 -274 -14 -143 -97 -379 -186 -524 -29 -47
-92 -130 -134 -176 -40 -44 -42 -49 -23 -64 9 -8 18 -4 34 16 12 15 38 45 57
67 20 22 39 48 42 58 3 9 9 17 14 17 10 0 97 151 133 230 24 52 64 172 73 215
27 137 30 179 28 317 -3 198 -11 251 -66 421 -18 53 -36 97 -40 97 -4 0 -8 6
-8 14 0 13 -81 166 -100 189 -6 7 -29 37 -52 67 -70 92 -207 219 -318 291 -57
39 -114 72 -127 75 -13 4 -23 11 -23 17 0 6 -3 7 -7 4 -3 -4 -11 -3 -17 2 -13
11 -216 82 -216 76 0 -3 -12 0 -26 5 -26 10 -41 13 -149 26 -43 6 -254 12
-258 8z"/>
<path d="M1247 2534 c-3 -2 -105 -16 -129 -17 -10 -1 -18 -4 -18 -7 0 -3 -14
-7 -32 -8 -17 -1 -65 -14 -107 -28 -306 -101 -561 -325 -707 -621 -31 -62 -57
-119 -58 -125 -2 -7 -6 -20 -9 -28 -37 -91 -61 -255 -59 -405 2 -114 7 -165
28 -250 8 -33 17 -70 19 -83 8 -33 36 -105 47 -116 4 -6 8 -17 8 -26 0 -22 93
-183 145 -250 77 -100 185 -202 282 -268 209 -143 450 -216 703 -215 66 1 189
11 212 19 9 2 25 6 35 8 71 14 189 52 211 69 6 5 12 6 12 3 0 -9 140 66 205
110 106 70 268 230 298 292 5 12 13 22 17 22 4 0 13 13 20 30 7 16 16 30 21
30 5 0 9 4 9 10 0 5 13 31 28 57 28 47 88 189 97 228 2 11 9 38 14 60 40 164
42 384 6 545 -3 14 -8 34 -10 45 -9 40 -53 161 -81 220 -114 243 -308 443
-550 567 -92 47 -212 92 -275 102 -20 3 -42 8 -50 10 -34 12 -102 18 -212 20
-64 1 -118 2 -120 0z m287 -79 c117 -17 308 -88 411 -152 97 -60 134 -91 226
-183 162 -162 264 -353 314 -584 18 -82 24 -299 10 -386 -4 -25 -8 -56 -10
-70 -2 -14 -4 -26 -4 -27 -1 -2 -1 -6 -2 -10 -5 -39 -88 -242 -121 -298 -45
-75 -88 -138 -100 -143 -5 -2 -8 -8 -8 -14 0 -10 -143 -155 -186 -188 -153
-120 -366 -211 -554 -236 -71 -10 -251 -10 -315 0 -27 4 -59 8 -70 10 -11 2
-47 11 -80 21 -33 9 -64 19 -70 20 -46 13 -71 24 -145 62 -83 43 -177 102
-211 133 -128 115 -220 226 -283 341 -40 74 -103 231 -111 280 -3 19 -8 41
-10 49 -13 47 -19 120 -19 235 0 136 5 184 24 256 7 24 14 53 16 64 18 95 131
307 219 410 162 191 374 328 595 386 130 33 348 44 484 24z"/>
<path d="M1272 2408 c2 -5 8 -9 13 -9 5 0 11 4 13 9 1 5 -4 9 -13 9 -9 0 -14
-4 -13 -9z"/>
<path d="M1365 2411 c-3 -5 2 -11 10 -15 8 -3 17 -1 20 3 3 5 -2 11 -10 15 -8
3 -17 1 -20 -3z"/>
<path d="M1181 2401 c-7 -5 -9 -11 -4 -14 5 -3 15 -2 22 2 7 5 9 11 4 14 -5 3
-15 2 -22 -2z"/>
<path d="M1465 2400 c3 -5 13 -10 21 -10 8 0 12 5 9 10 -3 6 -13 10 -21 10 -8
0 -12 -4 -9 -10z"/>
<path d="M1566 2391 c-4 -5 -2 -12 3 -15 5 -4 12 -2 15 3 4 5 2 12 -3 15 -5 4
-12 2 -15 -3z"/>
<path d="M1085 2381 c-6 -11 9 -23 19 -14 9 9 7 23 -3 23 -6 0 -12 -4 -16 -9z"/>
<path d="M1000 2360 c-8 -5 -11 -12 -7 -16 4 -4 13 -2 19 4 6 6 10 14 7 16 -2
3 -11 1 -19 -4z"/>
<path d="M1650 2360 c0 -5 9 -10 21 -10 11 0 17 5 14 10 -3 6 -13 10 -21 10
-8 0 -14 -4 -14 -10z"/>
<path d="M1338 2355 c-2 -2 -40 -6 -86 -9 -46 -3 -86 -7 -90 -10 -4 -2 -23 -7
-42 -10 -54 -8 -159 -45 -224 -77 -120 -61 -276 -176 -276 -205 0 -28 31 -20
76 21 27 25 52 44 56 45 4 0 13 6 20 13 55 54 252 143 360 162 13 3 46 9 73
14 64 13 275 7 340 -9 28 -6 57 -13 65 -15 144 -33 340 -152 460 -277 63 -66
151 -196 186 -274 90 -199 112 -446 59 -644 -13 -52 -27 -106 -31 -120 -3 -14
-12 -33 -21 -42 -9 -10 -13 -18 -10 -18 8 0 -34 -77 -79 -145 -34 -51 -64 -87
-137 -163 -45 -47 -177 -147 -177 -135 0 5 -4 3 -8 -3 -11 -17 -98 -59 -182
-87 -94 -31 -158 -44 -265 -52 -22 -2 -43 -4 -47 -4 -5 -1 -8 -10 -8 -22 0
-19 4 -20 64 -15 35 3 74 7 87 10 13 3 38 7 54 10 184 25 434 170 578 334 40
47 115 158 143 214 28 55 86 208 79 208 -2 0 0 11 5 26 6 14 13 44 17 67 9 53
9 292 0 332 -4 17 -9 40 -11 51 -2 12 -9 38 -14 57 -6 20 -7 38 -4 41 3 3 1 6
-5 6 -6 0 -13 14 -17 31 -3 16 -24 66 -45 110 -101 203 -251 355 -461 467 -59
31 -155 70 -190 77 -3 1 -18 4 -35 8 -65 16 -83 18 -150 23 -38 3 -78 6 -87 8
-9 2 -18 3 -20 1z"/>
<path d="M1750 2325 c0 -16 16 -20 24 -6 3 5 -1 11 -9 15 -9 3 -15 0 -15 -9z"/>
<path d="M902 2321 c-11 -7 -11 -9 1 -14 9 -3 18 1 21 9 6 16 -2 18 -22 5z"/>
<path d="M1835 2291 c-3 -5 2 -11 10 -15 8 -3 17 -1 20 3 3 5 -2 11 -10 15 -8
3 -17 1 -20 -3z"/>
<path d="M820 2275 c-7 -9 -11 -18 -8 -20 3 -3 11 1 18 10 7 9 11 18 8 20 -3
3 -11 -1 -18 -10z"/>
<path d="M1370 2245 c-16 -20 5 -33 60 -39 30 -3 88 -12 129 -21 60 -12 76
-13 83 -3 13 21 10 25 -24 33 -37 9 -47 12 -50 15 -2 1 -12 3 -23 5 -11 1 -38
6 -60 10 -63 11 -106 11 -115 0z"/>
<path d="M1920 2254 c0 -17 17 -36 24 -26 3 5 -1 15 -9 22 -8 7 -15 9 -15 4z"/>
<path d="M741 2231 c-7 -5 -12 -14 -10 -20 2 -6 10 -2 17 9 14 22 13 23 -7 11z"/>
<path d="M1029 2195 c-97 -36 -121 -48 -138 -69 -22 -26 21 -28 75 -2 27 13
76 32 109 42 67 20 87 32 82 48 -6 19 -42 14 -128 -19z"/>
<path d="M2002 2188 c5 -15 28 -23 28 -10 0 5 -7 13 -16 16 -10 4 -14 1 -12
-6z"/>
<path d="M655 2169 c-10 -15 3 -25 16 -12 7 7 7 13 1 17 -6 3 -14 1 -17 -5z"/>
<path d="M1354 2156 c-11 -28 2 -40 47 -43 94 -6 142 -16 234 -51 73 -27 168
-78 173 -93 2 -5 8 -9 13 -9 11 0 65 -47 121 -105 159 -162 245 -452 201 -675
-19 -99 -20 -102 -39 -150 -44 -112 -118 -224 -197 -300 -42 -41 -149 -117
-156 -111 -2 1 -7 -1 -10 -6 -11 -17 -115 -62 -176 -77 -213 -53 -403 -33
-590 61 -38 19 -72 38 -75 42 -3 3 -21 18 -40 33 -39 29 -143 128 -135 128 3
0 -6 12 -20 28 -31 33 -117 197 -108 206 3 3 1 6 -6 6 -7 0 -9 5 -6 10 4 6 2
16 -3 23 -9 12 -18 47 -29 117 -15 90 -4 278 20 340 3 8 11 32 17 52 25 82
126 244 168 271 15 10 16 43 1 53 -22 13 -125 -115 -177 -221 -23 -48 -61
-161 -67 -201 -2 -16 -7 -47 -11 -69 -20 -131 8 -323 68 -453 37 -81 107 -182
166 -241 69 -69 152 -137 152 -125 0 5 4 4 8 -2 8 -12 109 -65 157 -82 167
-59 342 -65 535 -17 63 15 240 102 240 117 0 4 5 8 10 8 26 0 158 135 215 220
97 146 139 285 139 460 1 134 -4 167 -38 275 -98 309 -396 554 -704 581 -42 3
-80 8 -85 11 -4 2 -10 -3 -13 -11z"/>
<path d="M2076 2132 c-3 -5 1 -15 9 -22 16 -14 20 -3 6 19 -5 8 -11 9 -15 3z"/>
<path d="M580 2105 c-10 -12 -10 -15 3 -15 19 0 31 16 18 24 -5 3 -14 -1 -21
-9z"/>
<path d="M1842 2098 c-18 -18 -16 -22 35 -58 26 -19 72 -57 102 -86 49 -46 81
-59 81 -33 0 15 -72 89 -130 133 -73 56 -75 57 -88 44z"/>
<path d="M2146 2061 c-4 -5 -2 -12 3 -15 5 -4 12 -2 15 3 4 5 2 12 -3 15 -5 4
-12 2 -15 -3z"/>
<path d="M520 2040 c-8 -5 -11 -12 -7 -16 4 -4 13 -2 19 4 15 15 7 24 -12 12z"/>
<path d="M668 1958 c-52 -50 -99 -110 -121 -155 -15 -29 -15 -32 1 -38 11 -4
23 1 34 17 10 13 23 29 28 36 6 6 8 12 4 12 -4 0 3 9 16 20 13 11 21 20 18 20
-3 0 15 21 39 47 23 26 43 53 43 60 0 27 -21 21 -62 -19z"/>
<path d="M2200 1986 c0 -2 7 -9 15 -16 12 -10 15 -10 15 4 0 9 -7 16 -15 16
-8 0 -15 -2 -15 -4z"/>
<path d="M450 1955 c0 -8 4 -15 9 -15 5 0 11 7 15 15 3 9 0 15 -9 15 -8 0 -15
-7 -15 -15z"/>
<path d="M2266 1895 c4 -8 10 -12 15 -9 11 6 2 24 -11 24 -5 0 -7 -7 -4 -15z"/>
<path d="M400 1875 c0 -8 5 -15 10 -15 6 0 10 7 10 15 0 8 -4 15 -10 15 -5 0
-10 -7 -10 -15z"/>
<path d="M2312 1821 c2 -7 7 -12 11 -12 12 1 9 15 -3 20 -7 2 -11 -2 -8 -8z"/>
<path d="M359 1808 c-6 -25 -6 -38 1 -38 12 0 20 29 10 35 -6 4 -10 5 -11 3z"/>
<path d="M2350 1736 c0 -8 5 -18 10 -21 6 -3 10 1 10 9 0 8 -4 18 -10 21 -5 3
-10 -1 -10 -9z"/>
<path d="M316 1705 c-3 -8 -1 -17 3 -20 5 -3 11 2 15 10 3 8 1 17 -3 20 -5 3
-11 -2 -15 -10z"/>
<path d="M1964 1697 c-2 -7 11 -47 31 -89 19 -42 35 -81 35 -86 0 -18 24 -31
36 -18 18 19 12 41 -40 149 -27 55 -51 72 -62 44z"/>
<path d="M2386 1636 c3 -9 11 -16 16 -16 13 0 5 23 -10 28 -7 2 -10 -2 -6 -12z"/>
<path d="M290 1611 c-6 -12 -7 -21 -1 -21 10 0 24 30 17 37 -2 3 -9 -5 -16
-16z"/>
<path d="M2410 1545 c0 -8 5 -15 10 -15 6 0 10 7 10 15 0 8 -4 15 -10 15 -5 0
-10 -7 -10 -15z"/>
<path d="M262 1521 c4 -13 18 -16 19 -4 0 4 -5 9 -11 12 -7 2 -11 -2 -8 -8z"/>
<path d="M760 1508 c5 -15 6 -30 1 -32 -5 -3 -7 -28 -6 -56 2 -30 -1 -47 -7
-44 -7 4 -7 0 0 -12 13 -26 9 -63 -9 -76 -11 -8 -11 -9 4 -4 11 3 17 0 17 -10
0 -8 -4 -12 -10 -9 -6 3 -7 -1 -4 -9 3 -9 10 -14 14 -11 10 6 8 -28 -2 -35 -4
-3 2 -11 12 -18 16 -10 20 -10 20 0 0 9 3 8 10 -2 7 -12 10 -12 10 -1 0 7 6
11 15 8 8 -4 17 -2 20 4 4 5 1 8 -7 7 -9 -2 -12 6 -10 27 1 17 3 42 4 57 2 19
6 24 15 17 6 -6 9 -17 6 -25 -3 -9 0 -14 7 -12 7 2 15 -4 17 -12 4 -13 3 -13
-6 0 -8 11 -11 11 -11 2 0 -7 7 -15 15 -18 8 -4 15 -12 15 -20 0 -8 5 -14 11
-14 5 0 7 -4 4 -10 -4 -6 8 -10 29 -10 29 0 36 4 36 20 0 11 4 20 9 20 6 0 8
-10 6 -21 -3 -12 -1 -19 2 -15 13 13 11 54 -3 49 -16 -6 -44 35 -37 55 5 11 3
13 -7 7 -8 -5 -11 -4 -6 3 3 6 -1 18 -10 26 -8 9 -11 16 -6 16 6 0 9 8 7 18
-3 20 14 44 26 36 16 -10 9 -24 -8 -18 -17 5 -17 5 -1 -9 10 -8 15 -17 11 -20
-3 -4 -1 -7 5 -7 12 0 13 39 1 55 -6 8 -5 50 1 50 1 0 3 16 6 35 2 19 1 31 -4
25 -10 -14 -43 -16 -35 -1 4 6 -1 5 -10 -3 -9 -7 -14 -18 -10 -24 3 -5 1 -7
-4 -4 -6 4 -14 -4 -17 -18 -4 -14 -11 -25 -17 -25 -6 0 -7 -5 -3 -12 5 -7 3
-8 -5 -4 -9 6 -8 12 4 26 14 15 14 18 1 23 -11 4 -13 1 -9 -10 5 -12 3 -14 -7
-8 -9 5 -11 4 -6 -3 4 -7 3 -12 -2 -12 -17 0 -21 13 -11 33 9 15 8 18 -2 12
-9 -6 -11 -2 -6 15 4 17 3 20 -6 11 -16 -16 -38 -14 -53 7 -13 15 -13 14 -4
-10z m93 -92 c4 -10 1 -13 -9 -9 -7 3 -14 9 -14 14 0 14 17 10 23 -5z"/>
<path d="M1061 1519 c7 -4 21 -6 31 -4 10 2 18 0 18 -5 0 -10 -62 -6 -81 5 -7
5 -10 4 -5 -3 3 -5 1 -12 -5 -14 -7 -2 -12 -23 -12 -46 0 -29 -4 -42 -14 -42
-7 0 -13 5 -13 11 0 5 3 8 8 6 4 -3 7 9 7 27 0 20 -5 33 -13 33 -7 0 -11 -6
-8 -12 2 -7 -1 -18 -7 -25 -9 -10 -9 -11 2 -5 11 6 13 4 8 -8 -8 -22 2 -47 17
-41 9 3 12 -18 11 -82 -1 -50 4 -95 11 -109 7 -13 9 -27 6 -31 -4 -4 -1 -4 6
0 7 4 10 10 8 14 -2 4 9 7 24 7 15 0 27 -2 25 -5 -2 -3 23 -5 55 -5 32 0 56 3
53 8 -2 4 1 7 7 7 7 0 9 8 5 21 -6 16 -4 20 6 14 11 -6 11 -5 2 5 -7 7 -28 14
-48 14 -23 1 -35 6 -35 15 0 11 3 11 18 0 15 -13 16 -12 4 3 -13 16 -47 14
-37 -2 10 -16 -13 -20 -25 -5 -7 8 -9 15 -5 15 4 0 3 6 -3 13 -8 10 -6 16 9
25 10 7 19 9 18 5 -3 -19 2 -33 12 -33 6 0 8 7 5 16 -3 8 -2 12 4 9 6 -3 10 0
10 7 0 10 2 11 8 0 5 -7 16 -10 25 -6 9 3 15 10 12 14 -3 5 0 12 6 16 7 4 9 3
6 -2 -3 -6 -2 -16 3 -24 7 -11 9 -9 7 8 -1 24 -47 75 -47 53 0 -8 -5 -7 -16 4
-9 9 -23 14 -31 10 -11 -4 -13 -1 -9 11 5 12 1 14 -17 10 -12 -3 -16 -3 -9 0
6 3 10 9 8 13 -3 4 7 7 22 6 15 0 31 4 35 10 5 6 7 3 3 -7 -3 -10 -1 -20 5
-23 5 -4 6 -12 3 -18 -4 -7 -4 -9 1 -5 4 4 14 3 22 -3 21 -18 15 -2 -8 20
l-21 19 24 13 c21 11 22 11 9 -5 -12 -14 -12 -16 4 -10 14 6 16 4 10 -6 -5 -8
-4 -11 3 -7 10 7 9 78 -3 97 -3 6 -11 8 -16 4 -6 -3 -21 -7 -35 -9 -17 -1 -21
1 -15 9 7 8 -4 11 -36 12 -24 1 -39 -2 -32 -7z"/>
<path d="M1217 1523 c-4 -3 -1 -13 5 -21 13 -16 20 -45 9 -38 -4 3 -8 -4 -8
-15 -1 -10 5 -19 13 -19 8 0 14 -5 14 -11 0 -5 -4 -8 -8 -5 -4 2 -8 -7 -9 -22
0 -15 1 -19 4 -9 2 9 9 15 14 12 5 -4 4 -15 -3 -28 -10 -21 -10 -21 7 -7 16
13 18 13 13 0 -3 -8 1 -30 8 -47 7 -18 10 -33 7 -33 -3 0 0 -6 6 -13 6 -8 8
-17 4 -20 -3 -4 -1 -13 6 -20 6 -8 10 -21 8 -28 -2 -8 -2 -11 0 -6 3 4 9 7 14
7 6 0 8 -4 4 -9 -3 -5 0 -13 6 -17 8 -4 9 -3 5 4 -6 11 28 18 57 13 5 -1 6 3
3 8 -4 5 -2 12 4 16 5 3 8 16 6 28 -4 25 33 60 50 46 7 -5 11 -4 11 5 0 15
-14 16 -36 2 -10 -7 -11 -3 -5 15 4 13 7 30 7 37 0 6 4 12 10 12 5 0 7 6 4 13
-2 6 1 26 8 42 6 17 11 42 10 57 -1 19 2 24 10 18 8 -6 12 -5 12 3 0 8 -5 14
-11 14 -6 0 -20 4 -31 8 -14 5 -16 4 -7 -3 11 -7 9 -10 -7 -15 -14 -3 -19 -1
-14 6 3 7 -3 3 -15 -7 -23 -20 -30 -32 -12 -21 17 10 11 -7 -7 -22 -10 -8 -12
-11 -4 -7 10 5 11 1 6 -16 -4 -12 -8 -30 -9 -38 -2 -9 -8 -18 -16 -20 -10 -4
-9 -6 1 -13 11 -7 11 -9 1 -9 -7 0 -10 -4 -7 -10 3 -5 1 -10 -5 -10 -6 0 -10
8 -8 18 2 9 -2 16 -8 15 -6 -1 -10 8 -9 20 1 12 0 27 -4 32 -6 11 -11 30 -15
59 -1 11 -12 23 -24 27 -12 5 -22 14 -22 21 0 8 -5 6 -11 -5 -6 -9 -15 -15
-20 -12 -5 4 -7 11 -4 16 7 10 1 12 -8 2z"/>
<path d="M1519 1517 c-26 -20 -28 -43 -8 -76 18 -30 39 -41 39 -20 0 5 -4 8
-9 5 -5 -3 -12 1 -15 9 -4 13 -2 13 14 5 10 -5 18 -19 17 -29 0 -11 -6 -17
-12 -14 -5 4 -2 -2 7 -13 12 -13 14 -24 8 -34 -13 -21 -12 -33 2 -24 7 4 8 3
4 -5 -4 -6 -12 -9 -17 -6 -14 9 -11 -2 7 -19 9 -9 11 -16 4 -16 -6 0 -8 -5 -4
-12 4 -7 3 -8 -4 -4 -7 4 -12 2 -12 -5 0 -8 -5 -7 -17 2 -11 10 -14 10 -9 2 4
-7 3 -13 -3 -13 -5 0 -11 6 -14 13 -3 6 -4 2 -4 -10 1 -12 5 -19 10 -16 5 3 4
-4 -2 -16 -13 -23 -9 -26 34 -34 11 -2 19 -9 17 -17 -2 -10 0 -11 11 -2 8 7
18 8 22 4 5 -4 5 -1 1 6 -4 7 -1 12 8 12 8 0 17 -8 19 -17 3 -13 5 -11 6 6 1
24 1 24 17 5 8 -10 12 -13 8 -5 -4 9 -2 12 7 9 8 -3 22 4 31 15 16 18 16 20 0
42 -12 16 -20 19 -25 11 -5 -6 -7 -2 -4 11 3 13 0 26 -5 30 -6 3 -8 1 -4 -5 3
-6 3 -13 -2 -16 -6 -4 -9 96 -3 151 1 8 13 11 32 9 19 -2 32 1 36 10 3 8 9 11
14 8 5 -3 6 3 2 12 -4 12 -3 15 6 10 6 -4 11 -15 9 -24 -1 -10 1 -22 5 -29 4
-6 3 -15 -3 -18 -8 -5 -7 -11 1 -21 7 -8 7 -14 1 -14 -14 0 -25 34 -13 38 12
4 5 22 -9 22 -11 0 -6 -39 7 -65 6 -11 9 -32 7 -47 -1 -17 2 -28 9 -28 8 0 7
-3 -2 -9 -10 -6 -11 -17 -6 -37 5 -16 7 -35 6 -43 -2 -8 3 -12 12 -8 8 3 20 0
27 -6 10 -9 11 -9 6 1 -7 11 6 17 28 13 5 -1 4 5 -4 13 -7 9 -9 16 -5 16 4 0
2 7 -5 15 -10 12 -8 16 10 23 20 7 21 10 7 15 -10 4 -17 11 -17 17 0 5 9 2 19
-7 11 -9 18 -21 14 -25 -3 -5 3 -15 12 -22 16 -11 16 -14 2 -28 -9 -9 -13 -18
-10 -22 3 -3 12 2 20 12 8 9 12 12 9 6 -3 -6 4 -19 16 -28 18 -16 20 -16 15
-2 -4 9 -2 16 3 16 6 0 10 -4 10 -10 0 -5 5 -10 11 -10 5 0 7 5 4 10 -3 6 1
10 9 10 8 0 18 5 22 12 4 7 3 8 -4 4 -7 -4 -12 -2 -12 3 0 6 8 11 18 11 14 0
14 2 3 9 -11 7 -15 37 -16 123 0 62 3 119 8 126 7 9 5 11 -8 6 -12 -5 -16 -4
-11 4 3 6 1 14 -5 18 -8 4 -9 3 -5 -4 4 -7 1 -12 -9 -12 -10 0 -14 5 -9 13 5
9 3 9 -7 -1 -8 -7 -14 -30 -15 -50 0 -26 -5 -36 -15 -34 -10 1 -8 -2 4 -12 15
-12 16 -15 2 -26 -13 -11 -14 -10 -9 5 5 11 3 16 -2 12 -6 -3 -11 4 -11 15 -1
11 -9 28 -17 37 -13 14 -13 20 -3 30 9 10 8 11 -5 6 -17 -7 -23 3 -19 28 0 4
-4 7 -10 7 -6 0 -9 -6 -6 -14 5 -11 -2 -14 -30 -11 -25 2 -32 0 -22 -6 13 -8
12 -10 -11 -13 -6 0 -15 -7 -19 -15 -7 -11 -11 -9 -20 7 -9 18 -9 21 3 16 8
-3 16 -1 20 4 3 5 -5 8 -17 7 -12 -1 -26 0 -31 3 -17 10 -56 8 -57 -3 0 -5 -4
-1 -9 10 -7 17 -9 17 -9 3 -1 -11 -6 -15 -16 -12 -8 4 -12 11 -9 18 3 6 -2 2
-10 -8 -14 -18 -21 -15 -17 7 1 9 -1 9 -20 -6z m181 -67 c0 -5 -2 -10 -4 -10
-3 0 -8 5 -11 10 -3 6 -1 10 4 10 6 0 11 -4 11 -10z"/>
<path d="M1332 1478 c2 -7 -3 -12 -10 -10 -8 1 -11 -2 -7 -8 3 -5 10 -10 15
-10 12 0 20 29 9 35 -5 4 -8 1 -7 -7z"/>
<path d="M1849 1458 c25 -28 43 -40 22 -14 -7 8 -8 16 -4 18 4 3 3 4 -3 2 -6
-1 -18 3 -25 9 -8 7 -3 0 10 -15z"/>
<path d="M1470 1466 c0 -2 8 -10 18 -17 15 -13 16 -12 3 4 -13 16 -21 21 -21
13z"/>
<path d="M2430 1450 c0 -19 3 -21 12 -12 9 9 9 15 0 24 -9 9 -12 7 -12 -12z"/>
<path d="M1975 1441 c-3 -5 -2 -12 3 -15 5 -3 9 1 9 9 0 17 -3 19 -12 6z"/>
<path d="M254 1429 c-3 -6 -1 -16 5 -22 8 -8 11 -5 11 11 0 24 -5 28 -16 11z"/>
<path d="M1470 1436 c0 -2 8 -10 18 -17 15 -13 16 -12 3 4 -13 16 -21 21 -21
13z"/>
<path d="M1110 1426 c0 -2 7 -9 15 -16 13 -11 14 -10 9 4 -5 14 -24 23 -24 12z"/>
<path d="M1330 1420 c7 -4 10 -12 7 -17 -3 -5 -2 -15 4 -23 6 -11 9 -12 9 -2
0 8 5 10 13 6 10 -6 10 -4 0 7 -15 16 -17 33 -3 24 6 -3 10 -2 10 3 0 5 -12
10 -26 10 -16 0 -21 -3 -14 -8z"/>
<path d="M1646 1413 c-6 -14 -5 -15 5 -6 7 7 10 15 7 18 -3 3 -9 -2 -12 -12z"/>
<path d="M1671 1414 c0 -11 3 -14 6 -6 3 7 2 16 -1 19 -3 4 -6 -2 -5 -13z"/>
<path d="M1200 1390 c-6 -11 -8 -20 -6 -20 3 0 10 9 16 20 6 11 8 20 6 20 -3
0 -10 -9 -16 -20z"/>
<path d="M1493 1387 c0 -7 9 -14 20 -14 11 -1 18 -1 16 0 -2 2 -11 8 -20 15
-12 9 -16 9 -16 -1z"/>
<path d="M1645 1371 c-5 -13 -4 -13 6 -4 10 10 16 10 30 -3 13 -12 19 -12 25
-3 5 8 3 10 -6 4 -9 -6 -12 -4 -8 6 4 9 -2 14 -18 15 -13 1 -25 -5 -29 -15z"/>
<path d="M984 1372 c4 -7 2 -19 -4 -27 -7 -9 -8 -15 -2 -15 16 0 24 32 11 44
-9 8 -10 8 -5 -2z"/>
<path d="M2066 1362 c-2 -9 -8 -61 -11 -114 -6 -94 -6 -98 14 -98 26 0 32 22
37 126 3 74 1 85 -16 94 -15 8 -20 6 -24 -8z"/>
<path d="M1216 1357 c3 -10 9 -15 12 -12 3 3 0 11 -7 18 -10 9 -11 8 -5 -6z"/>
<path d="M1536 1354 c-9 -24 -2 -26 12 -4 7 11 8 20 3 20 -5 0 -12 -7 -15 -16z"/>
<path d="M2435 1359 c-10 -15 3 -25 16 -12 7 7 7 13 1 17 -6 3 -14 1 -17 -5z"/>
<path d="M1659 1355 c-1 -3 -2 -8 -3 -12 -1 -5 -5 -14 -9 -20 -5 -8 -4 -13 2
-13 6 0 11 3 12 8 0 4 2 15 4 25 3 15 -3 26 -6 12z"/>
<path d="M947 1329 c18 -20 20 -28 10 -39 -10 -10 -9 -11 2 -5 11 6 13 4 8 -8
-9 -23 8 -30 24 -10 8 9 9 14 3 10 -7 -4 -15 0 -18 9 -4 11 -2 15 7 11 8 -3
14 1 14 9 0 7 -4 11 -9 8 -5 -4 -22 5 -36 17 l-27 24 22 -26z"/>
<path d="M1446 1334 c-5 -13 -4 -14 7 -6 8 7 18 8 22 4 5 -4 5 -1 1 6 -10 17
-23 15 -30 -4z"/>
<path d="M246 1325 c-3 -8 -1 -17 3 -20 5 -3 11 2 15 10 3 8 1 17 -3 20 -5 3
-11 -2 -15 -10z"/>
<path d="M1685 1322 c-5 -4 -11 -12 -12 -19 -3 -13 22 -12 34 2 5 4 2 5 -6 0
-11 -6 -13 -4 -8 8 7 19 6 20 -8 9z"/>
<path d="M1093 1292 c2 -12 6 -24 10 -28 3 -4 4 4 2 16 -6 30 -16 40 -12 12z"/>
<path d="M1147 1298 c2 -5 11 -8 19 -8 9 0 12 -5 8 -12 -4 -7 -3 -9 1 -5 17
15 12 32 -10 32 -13 0 -21 -3 -18 -7z"/>
<path d="M1250 1301 c0 -5 7 -11 14 -14 10 -4 13 -1 9 9 -6 15 -23 19 -23 5z"/>
<path d="M602 1277 c-16 -19 -10 -81 20 -179 12 -40 21 -46 42 -26 10 10 10
19 -1 50 -7 22 -15 59 -17 83 -1 24 -9 54 -17 66 -13 19 -16 19 -27 6z"/>
<path d="M1510 1285 c0 -7 30 -13 34 -7 3 4 -4 9 -15 9 -10 1 -19 0 -19 -2z"/>
<path d="M1710 1279 c0 -5 5 -7 10 -4 6 3 10 8 10 11 0 2 -4 4 -10 4 -5 0 -10
-5 -10 -11z"/>
<path d="M836 1255 c-3 -8 -1 -15 4 -15 6 0 10 7 10 15 0 8 -2 15 -4 15 -2 0
-6 -7 -10 -15z"/>
<path d="M1430 1256 c7 -7 13 -7 20 0 6 6 3 10 -10 10 -13 0 -16 -4 -10 -10z"/>
<path d="M1680 1260 c0 -5 5 -10 10 -10 6 0 10 5 10 10 0 6 -4 10 -10 10 -5 0
-10 -4 -10 -10z"/>
<path d="M2430 1261 c0 -6 5 -13 10 -16 6 -3 10 1 10 9 0 9 -4 16 -10 16 -5 0
-10 -4 -10 -9z"/>
<path d="M1275 1249 c-4 -6 -5 -12 -2 -15 2 -3 7 2 10 11 7 17 1 20 -8 4z"/>
<path d="M1710 1240 c0 -5 5 -10 11 -10 5 0 7 5 4 10 -3 6 -8 10 -11 10 -2 0
-4 -4 -4 -10z"/>
<path d="M250 1220 c0 -19 3 -21 12 -12 9 9 9 15 0 24 -9 9 -12 7 -12 -12z"/>
<path d="M1820 1230 c-8 -5 -10 -10 -5 -10 6 0 17 5 25 10 8 5 11 10 5 10 -5
0 -17 -5 -25 -10z"/>
<path d="M1416 1213 c-6 -14 -5 -15 5 -6 7 7 10 15 7 18 -3 3 -9 -2 -12 -12z"/>
<path d="M423 1212 c-7 -5 -11 -17 -9 -29 3 -11 7 -36 10 -54 9 -57 15 -79 21
-89 3 -5 8 -18 10 -27 9 -47 26 -74 43 -71 19 4 20 28 1 74 -13 32 -13 32 -30
119 -12 65 -27 89 -46 77z"/>
<path d="M1275 1210 c-3 -6 1 -7 9 -4 18 7 21 14 7 14 -6 0 -13 -4 -16 -10z"/>
<path d="M867 1199 c7 -7 15 -10 18 -7 3 3 -2 9 -12 12 -14 6 -15 5 -6 -5z"/>
<path d="M1056 1167 c3 -10 9 -15 12 -12 3 3 0 11 -7 18 -10 9 -11 8 -5 -6z"/>
<path d="M935 1160 c-3 -5 -1 -10 4 -10 6 0 11 5 11 10 0 6 -2 10 -4 10 -3 0
-8 -4 -11 -10z"/>
<path d="M2420 1161 c0 -17 18 -21 24 -6 3 9 0 15 -9 15 -8 0 -15 -4 -15 -9z"/>
<path d="M260 1131 c0 -6 5 -13 10 -16 6 -3 10 1 10 9 0 9 -4 16 -10 16 -5 0
-10 -4 -10 -9z"/>
<path d="M2410 1059 c0 -11 5 -17 10 -14 6 3 10 13 10 21 0 8 -4 14 -10 14 -5
0 -10 -9 -10 -21z"/>
<path d="M280 1036 c0 -8 5 -18 10 -21 6 -3 10 1 10 9 0 8 -4 18 -10 21 -5 3
-10 -1 -10 -9z"/>
<path d="M1969 963 c-18 -32 -41 -67 -51 -77 -24 -26 -23 -56 1 -56 21 0 40
23 90 107 30 52 32 83 6 83 -8 0 -28 -26 -46 -57z"/>
<path d="M2383 969 c-1 -10 2 -19 8 -19 11 0 12 27 1 34 -4 2 -9 -4 -9 -15z"/>
<path d="M697 969 c-10 -6 -14 -16 -10 -27 10 -27 61 -100 94 -133 25 -25 33
-28 45 -18 12 10 12 15 2 29 -7 10 -36 49 -64 88 -40 56 -53 68 -67 61z"/>
<path d="M310 946 c0 -8 5 -18 10 -21 6 -3 10 1 10 9 0 8 -4 18 -10 21 -5 3
-10 -1 -10 -9z"/>
<path d="M2346 875 c4 -8 10 -12 15 -9 14 8 10 24 -6 24 -9 0 -12 -6 -9 -15z"/>
<path d="M346 862 c-3 -6 -1 -14 5 -17 15 -10 25 3 12 16 -7 7 -13 7 -17 1z"/>
<path d="M2307 804 c-8 -8 1 -24 12 -24 4 0 8 7 8 15 0 16 -9 20 -20 9z"/>
<path d="M390 765 c0 -8 7 -15 15 -15 9 0 12 6 9 15 -4 8 -10 15 -15 15 -5 0
-9 -7 -9 -15z"/>
<path d="M605 760 c-11 -18 25 -68 101 -139 75 -69 97 -81 109 -61 5 8 -187
210 -200 210 -2 0 -7 -4 -10 -10z"/>
<path d="M1710 699 c-47 -27 -88 -50 -93 -52 -15 -5 4 -35 21 -32 9 2 18 4 20
5 1 2 5 3 10 4 18 3 119 65 135 83 14 16 15 22 5 31 -10 8 -35 -2 -98 -39z"/>
<path d="M2256 714 c-8 -21 -8 -24 3 -24 12 0 22 28 12 35 -5 3 -12 -2 -15
-11z"/>
<path d="M936 713 c-13 -14 -5 -42 14 -48 11 -3 20 -11 20 -16 0 -5 3 -8 8 -7
4 1 33 -11 66 -25 32 -15 65 -27 72 -27 19 0 18 28 -1 46 -8 9 -15 13 -15 10
0 -4 -24 6 -52 21 -79 41 -106 52 -112 46z"/>
<path d="M443 684 c0 -8 6 -14 14 -14 7 0 13 4 13 9 0 5 -6 11 -13 14 -8 3
-14 -1 -14 -9z"/>
<path d="M2196 625 c4 -8 10 -12 15 -9 14 8 10 24 -6 24 -9 0 -12 -6 -9 -15z"/>
<path d="M502 608 c2 -6 10 -14 16 -16 7 -2 10 2 6 12 -7 18 -28 22 -22 4z"/>
<path d="M1280 596 c-26 -12 -25 -22 1 -37 21 -11 185 -6 197 6 11 11 10 35
-1 37 -44 5 -180 1 -197 -6z"/>
<path d="M2141 566 c-7 -8 -8 -17 -3 -20 6 -3 13 1 16 10 9 23 2 28 -13 10z"/>
<path d="M566 536 c3 -9 11 -16 16 -16 13 0 5 23 -10 28 -7 2 -10 -2 -6 -12z"/>
<path d="M2066 494 c-9 -23 -2 -28 13 -10 7 8 8 17 3 20 -6 3 -13 -1 -16 -10z"/>
<path d="M640 465 c7 -8 17 -12 22 -9 6 4 5 10 -3 15 -22 14 -33 10 -19 -6z"/>
<path d="M997 463 c-19 -18 1 -32 81 -57 101 -31 178 -41 188 -25 7 12 -9 32
-28 35 -74 11 -102 17 -156 34 -71 22 -76 23 -85 13z"/>
<path d="M1990 424 c0 -14 3 -14 15 -4 8 7 15 14 15 16 0 2 -7 4 -15 4 -8 0
-15 -7 -15 -16z"/>
<path d="M715 410 c3 -5 13 -10 21 -10 8 0 12 5 9 10 -3 6 -13 10 -21 10 -8 0
-12 -4 -9 -10z"/>
<path d="M1911 381 c-10 -6 -10 -10 -1 -16 13 -8 24 -1 19 14 -3 6 -10 7 -18
2z"/>
<path d="M795 360 c3 -5 13 -10 21 -10 8 0 12 5 9 10 -3 6 -13 10 -21 10 -8 0
-12 -4 -9 -10z"/>
<path d="M885 321 c-6 -11 9 -23 19 -14 9 9 7 23 -3 23 -6 0 -12 -4 -16 -9z"/>
<path d="M970 280 c0 -5 7 -10 15 -10 8 0 15 5 15 10 0 6 -7 10 -15 10 -8 0
-15 -4 -15 -10z"/>
<path d="M1065 250 c3 -5 10 -10 16 -10 5 0 9 5 9 10 0 6 -7 10 -16 10 -8 0
-12 -4 -9 -10z"/>
<path d="M1160 230 c0 -5 7 -10 15 -10 8 0 15 5 15 10 0 6 -7 10 -15 10 -8 0
-15 -4 -15 -10z"/>
<path d="M1250 220 c0 -5 9 -10 21 -10 11 0 17 5 14 10 -3 6 -13 10 -21 10 -8
0 -14 -4 -14 -10z"/>
</g>
</svg>
